HIERARCHY
ROOT Hips
{
	OFFSET 0.000000 0.000000 0.000000
	CHANNELS 6 Xposition Yposition Zposition Xrotation Yrotation Zrotation
	JOINT C_ctrl
	{
		OFFSET 0.000000 35.040482 -0.000011
		CHANNELS 3 Xrotation Yrotation Zrotation
		JOINT Bip01
		{
			OFFSET -41.537640 41.789009 -0.000007
			CHANNELS 3 Xrotation Yrotation Zrotation
			JOINT Bip01_Pelvis
			{
				OFFSET -2.462887 0.000000 0.000000
				CHANNELS 3 Xrotation Yrotation Zrotation
				JOINT BN_Tail_01
				{
					OFFSET -11.399368 7.351341 -0.000013
					CHANNELS 3 Xrotation Yrotation Zrotation
					JOINT BN_Tail_02
					{
						OFFSET -11.365196 -0.343025 0.000012
						CHANNELS 3 Xrotation Yrotation Zrotation
						JOINT BN_Tail_03
						{
							OFFSET -15.076256 -0.454979 0.000017
							CHANNELS 3 Xrotation Yrotation Zrotation
							JOINT BN_Tail_04
							{
								OFFSET -17.395691 -0.525002 0.000016
								CHANNELS 3 Xrotation Yrotation Zrotation
								JOINT BN_Tail_05
								{
									OFFSET -16.699837 -0.504005 0.000016
									CHANNELS 3 Xrotation Yrotation Zrotation
									End Site
									{
										OFFSET 0.503998 -16.699829 0.000067
									}
								}
							}
						}
					}
				}
				JOINT Bip01_Spine
				{
					OFFSET 8.297798 5.916809 -0.000020
					CHANNELS 3 Xrotation Yrotation Zrotation
					JOINT Bip01_R_Thigh
					{
						OFFSET -8.297779 -5.916794 10.541781
						CHANNELS 3 Xrotation Yrotation Zrotation
						JOINT Bip01_R_Calf
						{
							OFFSET 5.631542 -22.906792 0.862690
							CHANNELS 3 Xrotation Yrotation Zrotation
							JOINT Bip01_R_HorseLink
							{
								OFFSET -16.984341 -19.231926 -3.555767
								CHANNELS 3 Xrotation Yrotation Zrotation
								JOINT Bip01_R_Foot
								{
									OFFSET 4.290367 -24.783146 0.578056
									CHANNELS 3 Xrotation Yrotation Zrotation
									JOINT Bip01_R_Toe0
									{
										OFFSET 3.561211 -5.815116 0.760802
										CHANNELS 3 Xrotation Yrotation Zrotation
										JOINT Bip01_R_Toe0Nub
										{
											OFFSET 16.135469 0.002017 1.534789
											CHANNELS 3 Xrotation Yrotation Zrotation
											End Site
											{
												OFFSET -0.000002 16.208284 -0.000056
											}
										}
									}
								}
							}
						}
					}
					JOINT Bip01_L_Thigh
					{
						OFFSET -8.297813 -5.916832 -10.541739
						CHANNELS 3 Xrotation Yrotation Zrotation
						JOINT Bip01_L_Calf
						{
							OFFSET 5.631535 -22.906792 -0.862625
							CHANNELS 3 Xrotation Yrotation Zrotation
							JOINT Bip01_L_HorseLink
							{
								OFFSET -16.984318 -19.231949 3.555875
								CHANNELS 3 Xrotation Yrotation Zrotation
								JOINT Bip01_L_Foot
								{
									OFFSET 4.290367 -24.783169 -0.577965
									CHANNELS 3 Xrotation Yrotation Zrotation
									JOINT Bip01_L_Toe0
									{
										OFFSET 3.561245 -5.815111 -0.760799
										CHANNELS 3 Xrotation Yrotation Zrotation
										JOINT Bip01_L_Toe0Nub
										{
											OFFSET 6.574303 -0.000005 -1.538561
											CHANNELS 3 Xrotation Yrotation Zrotation
											End Site
											{
												OFFSET 0.000004 -6.751935 0.000023
											}
										}
									}
								}
							}
						}
					}
					JOINT Bip01_Spine1
					{
						OFFSET 20.556803 -4.626213 -0.000025
						CHANNELS 3 Xrotation Yrotation Zrotation
						JOINT Saddle
						{
							OFFSET 17.608810 18.174690 -0.000143
							CHANNELS 3 Xrotation Yrotation Zrotation
							End Site
							{
								OFFSET -0.000063 -0.000061 -22.448387
							}
						}
						JOINT BN_center
						{
							OFFSET 10.743275 -13.417107 -0.172041
							CHANNELS 3 Xrotation Yrotation Zrotation
							End Site
							{
								OFFSET 22.434088 0.553078 -0.579614
							}
						}
						JOINT Bip01_Spine2
						{
							OFFSET 24.765072 -2.054115 -0.000032
							CHANNELS 3 Xrotation Yrotation Zrotation
							JOINT Handle
							{
								OFFSET 63.735676 16.430748 -16.052464
								CHANNELS 3 Xrotation Yrotation Zrotation
								JOINT IK_Chain01
								{
									OFFSET -4.713058 -6.020439 0.185448
									CHANNELS 3 Xrotation Yrotation Zrotation
									End Site
									{
										OFFSET -0.000023 -0.000023 -7.648071
									}
								}
							}
							JOINT BN_hair04_01
							{
								OFFSET 1.987491 16.256981 -2.049672
								CHANNELS 3 Xrotation Yrotation Zrotation
								JOINT BN_hair04_02
								{
									OFFSET -1.318762 -3.831451 -6.174704
									CHANNELS 3 Xrotation Yrotation Zrotation
									JOINT BN_hair04_03
									{
										OFFSET -0.827490 -5.886627 -5.656666
										CHANNELS 3 Xrotation Yrotation Zrotation
										End Site
										{
											OFFSET -2.658262 5.010620 -5.929780
										}
									}
								}
							}
							JOINT Bip01_Neck
							{
								OFFSET 25.574577 9.433014 -0.000084
								CHANNELS 3 Xrotation Yrotation Zrotation
								JOINT Bip01_R_Clavicle
								{
									OFFSET -16.535652 0.011192 6.705692
									CHANNELS 3 Xrotation Yrotation Zrotation
									JOINT Bip01_R_UpperArm
									{
										OFFSET 20.272621 -12.959984 2.510816
										CHANNELS 3 Xrotation Yrotation Zrotation
										JOINT Bip01_R_Forearm
										{
											OFFSET -13.633509 -15.503704 -0.653585
											CHANNELS 3 Xrotation Yrotation Zrotation
											JOINT Bip01_R_Hand
											{
												OFFSET 2.580030 -27.804676 -1.136415
												CHANNELS 3 Xrotation Yrotation Zrotation
												JOINT Bip01_R_Finger0
												{
													OFFSET -0.281744 -19.659061 -0.398649
													CHANNELS 3 Xrotation Yrotation Zrotation
													JOINT Bip01_Xtra02
													{
														OFFSET 4.152210 -5.712314 0.433813
														CHANNELS 3 Xrotation Yrotation Zrotation
														JOINT Bip01_Xtra02Nub
														{
															OFFSET 15.457960 0.041654 0.507982
															CHANNELS 3 Xrotation Yrotation Zrotation
															End Site
															{
																OFFSET -15.421730 -0.157725 -1.163459
															}
														}
													}
													JOINT Bip01_R_Finger0Nub
													{
														OFFSET 8.362326 -9.718440 -0.143142
														CHANNELS 3 Xrotation Yrotation Zrotation
														End Site
														{
															OFFSET -1.213036 -0.198171 9.872291
														}
													}
												}
											}
										}
									}
								}
								JOINT Bip01_L_Clavicle
								{
									OFFSET -16.535673 0.011162 -6.705583
									CHANNELS 3 Xrotation Yrotation Zrotation
									JOINT Bip01_L_UpperArm
									{
										OFFSET 20.272615 -12.959999 -2.510836
										CHANNELS 3 Xrotation Yrotation Zrotation
										JOINT Bip01_L_Forearm
										{
											OFFSET -13.633495 -15.503681 0.653678
											CHANNELS 3 Xrotation Yrotation Zrotation
											JOINT Bip01_L_Hand
											{
												OFFSET 2.579988 -27.804686 1.136487
												CHANNELS 3 Xrotation Yrotation Zrotation
												JOINT Bip01_L_Finger0
												{
													OFFSET -0.281765 -19.659058 0.398696
													CHANNELS 3 Xrotation Yrotation Zrotation
													JOINT Bip01_Xtra01
													{
														OFFSET 4.083549 -5.738758 -0.666714
														CHANNELS 3 Xrotation Yrotation Zrotation
														JOINT Bip01_Xtra01Nub
														{
															OFFSET 6.758158 -0.395525 -0.023239
															CHANNELS 3 Xrotation Yrotation Zrotation
															End Site
															{
																OFFSET 6.764923 -0.254147 -0.029908
															}
														}
													}
													JOINT Bip01_L_Finger0Nub
													{
														OFFSET -0.012636 -9.629153 0.045740
														CHANNELS 3 Xrotation Yrotation Zrotation
														End Site
														{
															OFFSET 0.988407 0.004791 8.293357
														}
													}
												}
											}
										}
									}
								}
								JOINT BN_hair03_01
								{
									OFFSET -5.894140 16.270622 -2.498433
									CHANNELS 3 Xrotation Yrotation Zrotation
									JOINT BN_hair03_02
									{
										OFFSET -0.189278 -7.800507 -6.219162
										CHANNELS 3 Xrotation Yrotation Zrotation
										JOINT BN_hair03_03
										{
											OFFSET 0.612345 -10.844475 -3.370718
											CHANNELS 3 Xrotation Yrotation Zrotation
											End Site
											{
												OFFSET -2.273296 2.862007 -10.769416
											}
										}
									}
								}
								JOINT Bip01_Neck1
								{
									OFFSET 9.383755 11.908699 -0.000007
									CHANNELS 3 Xrotation Yrotation Zrotation
									JOINT BN_hair02_01
									{
										OFFSET 9.126320 18.808022 -1.420810
										CHANNELS 3 Xrotation Yrotation Zrotation
										JOINT BN_hair02_02
										{
											OFFSET 0.393478 -5.181091 -5.248574
											CHANNELS 3 Xrotation Yrotation Zrotation
											JOINT BN_hair02_03
											{
												OFFSET 0.762280 -8.167076 -0.230047
												CHANNELS 3 Xrotation Yrotation Zrotation
												End Site
												{
													OFFSET -0.025837 -1.251419 -8.109770
												}
											}
										}
									}
									JOINT Bip01_Head
									{
										OFFSET 14.266129 10.475403 -0.000008
										CHANNELS 3 Xrotation Yrotation Zrotation
										JOINT BN_Reins_01
										{
											OFFSET 18.547455 -15.740112 -0.000035
											CHANNELS 3 Xrotation Yrotation Zrotation
											JOINT BN_Reins_02
											{
												OFFSET -5.372810 -5.884506 0.000028
												CHANNELS 3 Xrotation Yrotation Zrotation
												JOINT BN_Reins_03
												{
													OFFSET -6.395866 -15.947449 0.000070
													CHANNELS 3 Xrotation Yrotation Zrotation
													JOINT BN_Halter_R_01
													{
														OFFSET -1.234055 -3.096100 7.096737
														CHANNELS 3 Xrotation Yrotation Zrotation
														End Site
														{
															OFFSET 10.514435 -4.176861 -0.000004
														}
													}
													JOINT BN_Halter_L_01
													{
														OFFSET -1.234062 -3.096146 -7.096726
														CHANNELS 3 Xrotation Yrotation Zrotation
														End Site
														{
															OFFSET -10.514435 4.176865 -0.000000
														}
													}
													JOINT BN_Reins_04
													{
														OFFSET -6.737644 -16.971684 0.000074
														CHANNELS 3 Xrotation Yrotation Zrotation
														JOINT BN_Halter_R_02
														{
															OFFSET -4.688869 -11.781956 7.096771
															CHANNELS 3 Xrotation Yrotation Zrotation
															End Site
															{
																OFFSET 14.669624 -5.827511 -0.000006
															}
														}
														JOINT BN_Halter_L_02
														{
															OFFSET -4.688892 -11.782017 -7.096693
															CHANNELS 3 Xrotation Yrotation Zrotation
															End Site
															{
																OFFSET -14.669624 5.827507 -0.000002
															}
														}
														JOINT BN_Reins_05
														{
															OFFSET -6.822578 -16.971161 0.000074
															CHANNELS 3 Xrotation Yrotation Zrotation
															JOINT BN_Reins_06
															{
																OFFSET -6.140354 -15.095148 0.000066
																CHANNELS 3 Xrotation Yrotation Zrotation
																End Site
																{
																	OFFSET -15.095150 6.140352 -0.000002
																}
															}
														}
													}
												}
											}
										}
										JOINT BN_hair01_01
										{
											OFFSET 8.957344 8.870956 0.112121
											CHANNELS 3 Xrotation Yrotation Zrotation
											JOINT BN_hair01_02
											{
												OFFSET 6.002075 -2.962952 -3.121264
												CHANNELS 3 Xrotation Yrotation Zrotation
												End Site
												{
													OFFSET 5.917702 3.813591 -2.232396
												}
											}
										}
										JOINT BN_Eyebrow_R
										{
											OFFSET 11.795959 -0.430496 4.449781
											CHANNELS 3 Xrotation Yrotation Zrotation
											JOINT Bip01_Xtra06Nub
											{
												OFFSET 2.936661 -0.262573 3.246701
												CHANNELS 3 Xrotation Yrotation Zrotation
												End Site
												{
													OFFSET 2.768745 0.208199 3.394807
												}
											}
										}
										JOINT BN_Eyebrow_L
										{
											OFFSET 11.586395 -0.445618 -4.441728
											CHANNELS 3 Xrotation Yrotation Zrotation
											JOINT Bip01_Xtra05Nub
											{
												OFFSET 3.244698 -0.349442 -4.416700
												CHANNELS 3 Xrotation Yrotation Zrotation
												End Site
												{
													OFFSET 3.053162 0.072495 -4.564033
												}
											}
										}
										JOINT Bip01_R_Ear_01
										{
											OFFSET 7.142960 7.567184 4.311657
											CHANNELS 3 Xrotation Yrotation Zrotation
											JOINT Bip01_Xtra04Nub
											{
												OFFSET 9.464531 9.264214 1.682953
												CHANNELS 3 Xrotation Yrotation Zrotation
												End Site
												{
													OFFSET 8.448181 10.159340 1.910823
												}
											}
										}
										JOINT Bip01__L_Ear_01
										{
											OFFSET 7.214943 7.717056 -4.356771
											CHANNELS 3 Xrotation Yrotation Zrotation
											JOINT Bip01_Xtra03Nub
											{
												OFFSET 9.230225 8.944366 -2.322746
												CHANNELS 3 Xrotation Yrotation Zrotation
												End Site
												{
													OFFSET 8.170288 9.841324 -2.643566
												}
											}
										}
										JOINT Bip01_Jaw
										{
											OFFSET 9.196068 -4.110695 -0.000013
											CHANNELS 3 Xrotation Yrotation Zrotation
											JOINT Bip01_Ponytail1Nub
											{
												OFFSET 10.976463 -21.082108 -0.000053
												CHANNELS 3 Xrotation Yrotation Zrotation
												End Site
												{
													OFFSET 11.247093 -20.938980 0.000113
												}
											}
										}
										JOINT Bip01_HeadNub
										{
											OFFSET 29.954575 -18.249489 -0.000063
											CHANNELS 3 Xrotation Yrotation Zrotation
											End Site
											{
												OFFSET -9.198448 -13.366348 0.000168
											}
										}
									}
								}
							}
						}
					}
				}
			}
		}
	}
}
MOTION
Frames: 4
Frame Time: 0.033333
0.000000 0.000000 0.000000 0.000008 0.000000 -0.000000 -0.000000 0.000000 -0.000000 0.000075 0.000048 -3.702398 1.507946 0.024837 -4.576620 -1.062702 8.684364 -3.189048 1.492123 -2.475978 29.363939 0.476649 -15.409883 19.038879 1.468135 -11.522897 5.580875 -0.043898 1.460480 -15.131879 -0.730250 -0.131746 14.165716 9.741134 8.179358 -38.742435 0.154351 0.007398 -0.782778 3.490469 -0.353547 -17.837500 7.351864 -8.711137 -55.603259 0.278290 0.127417 -1.345109 -0.000074 -0.000344 -0.000048 -7.534753 -9.106001 -19.585245 -5.008079 0.868802 -25.946092 3.102689 0.612608 16.059076 -8.793177 11.148053 -77.008873 -0.371624 -0.177065 -1.784441 0.008517 0.000077 0.038648 -1.260018 0.210540 -6.417268 0.307982 -0.014238 0.369071 1.207829 -0.139849 -1.032783 -0.125530 -0.075841 -3.035543 0.000079 -0.000112 -0.000070 -0.000018 -0.014958 0.015042 1.881326 1.572107 1.462700 6.612636 11.512006 -15.509087 4.975563 5.266133 -6.968489 0.772637 -0.086590 12.189082 -1.179937 -1.914470 -25.828545 0.731913 3.003966 8.431748 0.001711 -0.192944 4.705596 2.744052 2.709188 -0.110156 -4.326818 2.494264 0.329572 -0.047308 -1.230079 3.773357 -0.793877 0.152328 -0.479417 -0.804180 0.123484 -0.482662 1.436880 5.509294 -48.024665 1.776909 -6.849618 25.940461 -0.135282 -0.713302 -17.772229 -5.165519 -2.300072 -21.755568 -1.591326 3.693154 -55.535571 0.225913 5.813976 0.939876 0.028255 0.072122 2.451899 -0.000916 0.100619 2.451938 3.475387 -0.351551 -0.561366 -1.063206 2.888025 -9.118892 -0.227822 1.613179 -5.603211 -0.127794 -0.212072 -0.890309 1.723944 0.132158 -0.860598 4.655880 0.170016 -6.002576 8.763324 0.728996 0.374349 -0.165727 0.599856 -19.861664 -0.000020 -0.000266 -25.311330 0.213794 -0.456168 16.176354 -0.000098 -0.000103 -33.774886 -0.000028 -0.000025 -1.472384 -0.000003 -0.000001 2.910841 -0.000160 -0.000139 -52.541589 -23.901969 -11.933096 -2.566578 34.949197 16.671903 -5.206561 -0.000089 -0.000113 -35.888310 0.000033 0.000035 -0.000048 3.525366 7.334510 1.280909 5.087812 -1.476923 12.353825 0.000063 -0.000069 0.000021 0.024194 -0.030057 11.786635 0.000061 -0.000042 0.000029 0.023218 -0.032288 11.715997 1.104619 -0.240314 -2.843823 0.039022 0.011714 11.754829 -1.693877 -0.491029 -6.293743 0.038942 0.011466 11.744878 -0.000013 0.000036 1.260661 -0.003502 -0.040872 11.750665 0.000052 -0.000036 11.750657 
0.000000 0.000000 0.000000 0.000008 0.000000 -0.000000 -0.000000 0.000000 -0.000000 0.000074 0.000032 -2.795521 0.153738 -1.415715 -2.787117 -0.948614 9.200986 -3.998277 0.293673 -0.514216 28.115091 0.468959 -15.160107 20.402861 2.735848 -14.206838 9.288767 -0.035468 0.999022 -7.226484 0.726335 1.370108 11.360036 7.294994 8.918892 -27.729673 3.990982 -0.497273 -20.471795 1.332985 -0.005595 -6.756157 7.250728 -7.543005 -52.659925 0.305622 0.123264 -1.471431 -0.000074 -0.000345 -0.000047 -6.526979 -9.186746 -12.096603 -6.288812 1.504995 -33.167013 4.945732 1.445053 26.282855 -8.643019 11.131051 -79.632855 -0.438922 -0.174728 -2.106884 0.008516 0.000079 0.038649 -1.653688 0.333123 -8.724895 0.529826 -0.023457 2.786810 1.216242 -0.135230 -1.122826 -0.065880 -0.029594 -2.806063 0.000079 -0.000112 -0.000070 0.000017 -0.014951 0.015042 1.881417 1.572123 1.462628 6.612631 11.512006 -15.509083 4.975579 5.266139 -6.968506 0.919102 -0.052646 13.077352 -1.552182 -2.398739 -30.041887 0.704235 3.468749 8.791237 -0.000942 -0.040076 0.977251 3.592573 3.058774 -1.630987 -7.165375 0.296766 10.179545 -0.570747 1.008167 4.738761 -0.793905 0.152328 -0.479425 -0.804179 0.123484 -0.482662 1.151988 5.287405 -47.246399 1.789480 -6.450597 25.459086 -0.102547 -0.614650 -15.237633 -4.425655 -1.703330 -36.484364 -3.704551 2.342514 -61.354893 -0.469388 6.359007 1.466897 0.028255 0.072122 2.451925 -0.000915 0.100618 2.451941 4.170406 -0.334521 -0.074912 -1.296996 3.259173 -10.215156 -0.364766 1.861570 -6.417243 -0.071284 -0.111727 -2.416915 1.400005 0.121859 -0.437081 3.945104 0.123942 -6.619080 6.390538 0.403736 -0.539186 -0.112434 0.458062 -15.264400 -0.000006 -0.000240 -22.553867 0.154669 -0.481806 7.486345 -0.000093 -0.000100 -32.472410 -0.000021 -0.000033 -2.768345 0.000018 -0.000023 -0.086600 -0.000152 -0.000136 -50.536576 -23.901965 -11.933094 -2.566575 34.949214 16.671891 -5.206558 -0.000085 -0.000110 -34.610727 0.000033 0.000035 -0.000048 2.955905 6.969950 0.484133 3.712895 -1.069928 8.789592 0.000063 -0.000065 0.000034 0.024207 -0.030053 11.786659 0.000059 -0.000036 0.000033 0.023234 -0.032279 11.715969 0.955958 0.555193 -6.983504 0.039035 0.011739 11.754840 -1.444531 -1.212539 -8.724934 0.038954 0.011491 11.744871 -0.000016 0.000030 0.576003 -0.003485 -0.040893 11.750678 0.000052 -0.000036 11.750661 
0.000000 0.000000 0.000000 0.000008 0.000000 -0.000000 -0.000000 0.000000 -0.000000 0.000073 0.000032 -2.134700 -0.731414 -2.605270 -1.546402 -0.829324 9.705996 -4.793977 -0.627085 1.171374 26.420871 0.429115 -13.937237 21.972746 3.972027 -16.254409 12.203378 0.029384 -0.991038 -0.052182 1.742197 2.548194 9.184860 5.261096 9.006449 -18.862184 6.769144 -1.798803 -36.005124 -1.069551 -0.109740 5.447296 7.266246 -6.767577 -52.202040 0.319105 0.121191 -1.533669 -0.000074 -0.000345 -0.000046 -5.702401 -9.196907 -5.675376 -7.039356 1.978632 -37.639332 6.371362 2.396808 34.923116 -8.586265 10.973745 -81.296634 -0.462768 -0.173828 -2.218635 0.008516 0.000079 0.038650 -1.951188 0.439270 -10.769522 0.747593 -0.023319 5.157626 1.224501 -0.130724 -1.211121 -0.000003 -0.000003 -2.645285 0.000079 -0.000112 -0.000070 0.000099 -0.014931 0.015043 1.881417 1.572123 1.462628 6.612628 11.512001 -15.509083 4.975582 5.266138 -6.968501 1.064121 -0.006193 14.053907 -2.002168 -2.921718 -34.717175 0.779948 4.191544 11.335422 0.006692 0.116822 -2.853355 4.080426 3.266591 -2.306986 -8.960787 -1.300528 16.123785 -1.353204 3.861824 5.945757 -0.793930 0.152328 -0.479427 -0.804179 0.123484 -0.482661 0.574456 4.686286 -43.640876 1.538562 -5.553741 22.488190 -0.053157 -0.426649 -10.496999 -3.769600 -1.154318 -52.740419 -5.648624 0.007486 -61.126013 -1.098708 6.839165 2.000493 0.028255 0.072122 2.451929 -0.000916 0.100617 2.451936 4.851775 -0.312066 0.401804 -1.389533 3.407427 -10.646856 -0.376007 1.882328 -6.484964 0.000001 0.000002 -3.293554 1.084156 0.107260 -0.021807 3.664549 0.105897 -6.867850 5.157766 0.132981 -1.525952 -0.110971 0.369264 -11.628312 -0.000005 -0.000240 -21.499100 0.152425 -0.555996 1.595409 -0.000090 -0.000098 -31.496430 -0.000011 -0.000033 -1.796899 0.000014 -0.000034 -2.377960 -0.000146 -0.000134 -49.042763 -23.901969 -11.933094 -2.566577 34.949221 16.671896 -5.206593 -0.000082 -0.000107 -33.650665 0.000033 0.000035 -0.000050 2.392953 6.620288 -0.300160 2.392074 -0.588948 5.305357 0.000062 -0.000062 0.000028 0.024223 -0.030051 11.786682 0.000070 -0.000022 0.000019 0.023249 -0.032281 11.715946 0.885429 1.335096 -11.105662 0.039049 0.011762 11.754842 -1.290228 -1.929239 -11.270296 0.038966 0.011515 11.744870 -0.000019 0.000025 -0.046913 -0.003467 -0.040914 11.750675 0.000052 -0.000036 11.750660 
0.000000 0.000000 0.000000 0.000008 0.000000 -0.000000 -0.000000 0.000000 -0.000000 0.000073 0.000047 -1.754804 -0.976943 -3.649308 -1.051444 -0.879627 9.137765 -4.433016 -0.875134 1.765066 24.647812 0.188320 -6.217388 22.028550 4.277250 -14.522051 14.879080 0.125865 -1.859319 -1.271114 2.015666 3.574145 8.020635 4.144282 8.256344 -14.848729 8.054638 -2.763819 -44.099202 -3.854852 -0.904806 20.137517 7.925908 -6.651512 -57.713446 0.292131 0.111325 -1.404638 -0.000074 -0.000346 -0.000047 -5.206532 -9.306279 -0.640483 -6.922338 1.899315 -36.927513 7.690730 3.606814 43.925227 -8.690783 9.977799 -79.020207 -0.470975 -0.173514 -2.256491 0.008517 0.000079 0.038647 -2.017605 0.474862 -12.888038 0.967284 -0.014072 7.551887 1.232847 -0.126208 -1.300290 0.143264 -0.001412 -2.543638 0.000079 -0.000112 -0.000069 -0.000052 -0.014931 0.015043 1.881415 1.572124 1.462627 6.612633 11.512005 -15.509080 4.975582 5.266136 -6.968502 1.270036 0.094317 15.266255 -2.457065 -3.217801 -38.041039 0.966570 5.077561 14.487832 0.027534 0.290680 -7.123623 3.467838 2.839556 1.981955 -8.401491 -0.377781 18.938122 -1.353234 3.861796 5.945763 -0.793985 0.152328 -0.479431 -0.804180 0.123484 -0.482661 -0.152362 3.842803 -38.873506 1.032998 -4.737823 19.222536 -0.023429 -0.263494 -6.452871 -3.830765 -0.680186 -66.526118 -5.895259 -0.936874 -61.499413 -1.099147 6.839149 2.000566 0.028282 0.072123 2.451929 -0.000916 0.100618 2.451934 4.735399 -0.237221 1.296853 -1.235463 3.161023 -9.927414 -0.387334 1.903308 -6.553355 0.149621 0.204245 -2.771138 1.526589 0.189844 1.041642 3.782408 0.079011 -5.640527 4.821966 -0.111083 -2.881505 -0.351385 0.420627 -9.690736 -0.000010 -0.000249 -23.498991 0.223639 -0.854455 0.703890 -0.000089 -0.000097 -31.225060 -0.000017 -0.000019 0.731484 -0.000017 -0.000036 -3.948440 -0.000144 -0.000134 -48.628375 -23.901964 -11.933098 -2.566575 34.949217 16.671894 -5.206614 -0.000081 -0.000107 -33.382710 0.000033 0.000035 -0.000051 2.000614 5.688412 -1.055646 1.248884 -0.566604 3.418211 0.000060 -0.000064 0.000028 0.024255 -0.030033 11.786721 0.000060 -0.000042 0.000023 0.023278 -0.032277 11.715899 0.885429 1.335096 -11.105660 0.039073 0.011809 11.754846 -1.290230 -1.929236 -11.270297 0.038990 0.011560 11.744859 -0.000023 0.000019 -0.675999 -0.003432 -0.040956 11.750675 0.000052 -0.000036 11.750662 
